<?xml version="1.0" encoding="iso-8859-1"?>
<!-- Generator: Adobe Illustrator 19.0.0, SVG Export Plug-In . SVG Version: 6.00 Build 0)  -->
<svg version="1.1" id="Layer_1" xmlns="http://www.w3.org/2000/svg" xmlns:xlink="http://www.w3.org/1999/xlink" x="0px" y="0px"
	 viewBox="0 0 512 512" style="enable-background:new 0 0 512 512;" xml:space="preserve">
<circle style="fill:#366695;" cx="256" cy="256" r="256"/>
<path style="fill:#273B7A;" d="M512,256c0-4.346-0.11-8.668-0.324-12.96L372.364,103.727l-92.62,125.447l4.318,4.318
	L152.566,411.289l100.676,100.676c0.921,0.01,1.836,0.034,2.758,0.034C397.384,512,512,397.384,512,256z"/>
<rect x="152.566" y="126.845" style="fill:#FF7F4F;" width="206.869" height="284.444"/>
<g>
	<rect x="255.431" y="126.845" style="fill:#D35933;" width="104.003" height="284.444"/>
	<rect x="139.636" y="103.727" style="fill:#D35933;" width="232.727" height="25.859"/>
</g>
<g>
	<rect x="178.424" y="152.704" style="fill:#FFFFFF;" width="25.859" height="51.717"/>
	<rect x="243.071" y="152.704" style="fill:#FFFFFF;" width="25.859" height="51.717"/>
</g>
<rect x="307.717" y="152.704" style="fill:#D0D1D3;" width="25.859" height="51.717"/>
<g>
	<rect x="178.424" y="230.279" style="fill:#FFFFFF;" width="25.859" height="51.717"/>
	<rect x="243.071" y="230.279" style="fill:#FFFFFF;" width="25.859" height="51.717"/>
</g>
<rect x="255.431" y="103.727" style="fill:#B54324;" width="116.938" height="25.859"/>
<g>
	<rect x="255.431" y="152.704" style="fill:#D0D1D3;" width="13.503" height="51.717"/>
	<rect x="255.431" y="230.279" style="fill:#D0D1D3;" width="13.503" height="51.717"/>
	<rect x="307.717" y="230.279" style="fill:#D0D1D3;" width="25.859" height="51.717"/>
</g>
<rect x="223.091" y="333.714" style="fill:#FFFFFF;" width="65.819" height="77.576"/>
<rect x="255.431" y="333.714" style="fill:#D0D1D3;" width="33.485" height="77.576"/>
<path style="fill:#FEE187;" d="M213.685,347.817c0-23.369,18.944-42.313,42.313-42.313s42.313,18.944,42.313,42.313H213.685z"/>
<path style="fill:#FFC61B;" d="M256,305.504c-0.193,0-0.383,0.012-0.574,0.016v42.299h42.887
	C298.313,324.448,279.369,305.504,256,305.504z"/>
<g>
</g>
<g>
</g>
<g>
</g>
<g>
</g>
<g>
</g>
<g>
</g>
<g>
</g>
<g>
</g>
<g>
</g>
<g>
</g>
<g>
</g>
<g>
</g>
<g>
</g>
<g>
</g>
<g>
</g>
</svg>
